# xmcd CD database file
#
# Track frame offsets:
#	150
#	13211
#	26097
#	32188
#	41710
#	47906
#	53587
#	56280
#	67961
#	74482
#	125701
#	129807
#	137400
#	141318
#	153045
#
# Disc length: 2129 seconds
#
# Revision: 0
# Processed by: cddbd v1.5.2PL0 Copyright (c) Steve Scherf et al.
# Submitted via: CDex 1.70beta2
#
DISCID=d2084f0f
DTITLE=Dave Lee - Revelation
DYEAR=1974
DGENRE=Jazz
TTITLE0=Revelation
TTITLE1=Spirit Voice
TTITLE2=Cosmic Vision
TTITLE3=Wymbo-Ngoma
TTITLE4=Regeneration
TTITLE5=Freedom Bells
TTITLE6=Acknowledgement
TTITLE7=Love Parable
TTITLE8=Nola Reflex
TTITLE9=Evolution
TTITLE10=Cosmopolitan
TTITLE11=Second Line March
TTITLE12=Constant Search
TTITLE13=I Want Our Love To Always Last
TTITLE14=Mystic Sound
EXTD=YEAR: 1974
EXTT0=
EXTT1=
EXTT2=
EXTT3=
EXTT4=
EXTT5=
EXTT6=
EXTT7=
EXTT8=
EXTT9=
EXTT10=
EXTT11=
EXTT12=
EXTT13=
EXTT14=
PLAYORDER=
